<svg class="eye-closed" width="32" height="25" viewBox="0 0 32 25" fill="none" xmlns="http://www.w3.org/2000/svg">
    <path d="M3.24466 0.87809C2.76204 0.496704 2.06131 0.585074 1.68078 1.06878C1.30025 1.55249 1.38842 2.2548 1.87104 2.63619L29.3434 24.2171C29.8261 24.5985 30.5268 24.5101 30.9073 24.0264C31.2879 23.5427 31.1997 22.8404 30.7171 22.459L25.8351 18.6265C27.6728 16.7382 28.9165 14.622 29.543 13.1197C29.6961 12.7522 29.6961 12.3429 29.543 11.9755C28.8515 10.3151 27.399 7.89654 25.2272 5.87798C23.0461 3.84081 20.0437 2.12923 16.2941 2.12923C13.1292 2.12923 10.4933 3.35245 8.4375 4.95707L3.24466 0.87809ZM10.252 6.38029C11.9319 5.18497 13.9505 4.36173 16.2941 4.36173C19.3197 4.36173 21.8071 5.73845 23.7144 7.5105C25.501 9.17558 26.7354 11.1523 27.3665 12.5476C26.7818 13.8499 25.6681 15.6545 24.0763 17.2405L21.5797 15.2778C22.002 14.4592 22.2387 13.5336 22.2387 12.5476C22.2387 9.2593 19.5796 6.59424 16.2987 6.59424C14.8044 6.59424 13.4354 7.14772 12.3913 8.05932L10.252 6.38029ZM19.7699 13.8592L15.9878 10.8872C16.1827 10.4918 16.2941 10.0407 16.2941 9.57092C16.2941 9.31511 16.2616 9.06395 16.2012 8.82675C16.2337 8.82675 16.2616 8.82675 16.2941 8.82675C18.3452 8.82675 20.0065 10.4918 20.0065 12.5476C20.0065 13.0081 19.923 13.4499 19.7699 13.8592ZM20.2061 19.9195C19.0227 20.4265 17.7187 20.7335 16.2941 20.7335C13.2684 20.7335 10.781 19.3567 8.87372 17.5847C7.08709 15.9196 5.85269 13.9429 5.22156 12.5476C5.60673 11.6918 6.21929 10.6174 7.04996 9.53371L5.30045 8.15235C4.24239 9.53371 3.48598 10.9104 3.04512 11.9755C2.89198 12.3429 2.89198 12.7522 3.04512 13.1197C3.73657 14.7801 5.18908 17.1987 7.36088 19.2172C9.54197 21.2544 12.5444 22.966 16.2941 22.966C18.5123 22.966 20.466 22.366 22.1505 21.4544L20.2061 19.9195ZM10.3541 12.5476C10.3541 15.8359 13.0131 18.5009 16.2941 18.5009C16.9113 18.5009 17.5052 18.4079 18.0668 18.2312L15.4587 16.1754C14.3682 15.9243 13.4586 15.1894 12.9667 14.208L10.3634 12.1523C10.3541 12.2825 10.3494 12.4127 10.3494 12.5476H10.3541Z" fill="black" stroke="white"/>
</svg>
