<svg width="29" height="23" viewBox="0 0 29 23" fill="none" xmlns="http://www.w3.org/2000/svg">
    <path d="M14.4007 3.11963C11.3444 3.11963 8.83193 4.50713 6.90537 6.29307C5.10068 7.97119 3.85381 9.96338 3.21631 11.3696C3.85381 12.7759 5.10068 14.7681 6.90068 16.4462C8.83193 18.2321 11.3444 19.6196 14.4007 19.6196C17.4569 19.6196 19.9694 18.2321 21.896 16.4462C23.7007 14.7681 24.9476 12.7759 25.5851 11.3696C24.9476 9.96338 23.7007 7.97119 21.9007 6.29307C19.9694 4.50713 17.4569 3.11963 14.4007 3.11963ZM5.37256 4.64775C7.58037 2.59463 10.6132 0.869629 14.4007 0.869629C18.1882 0.869629 21.221 2.59463 23.4288 4.64775C25.6226 6.68682 27.0897 9.11963 27.7882 10.7931C27.9429 11.1634 27.9429 11.5759 27.7882 11.9462C27.0897 13.6196 25.6226 16.0571 23.4288 18.0915C21.221 20.1446 18.1882 21.8696 14.4007 21.8696C10.6132 21.8696 7.58037 20.1446 5.37256 18.0915C3.17881 16.0571 1.71162 13.6196 1.01787 11.9462C0.863184 11.5759 0.863184 11.1634 1.01787 10.7931C1.71162 9.11963 3.17881 6.68213 5.37256 4.64775ZM14.4007 15.1196C16.4726 15.1196 18.1507 13.4415 18.1507 11.3696C18.1507 9.29775 16.4726 7.61963 14.4007 7.61963C14.3679 7.61963 14.3397 7.61963 14.3069 7.61963C14.3679 7.85869 14.4007 8.11182 14.4007 8.36963C14.4007 10.0243 13.0554 11.3696 11.4007 11.3696C11.1429 11.3696 10.8897 11.3368 10.6507 11.2759C10.6507 11.3087 10.6507 11.3368 10.6507 11.3696C10.6507 13.4415 12.3288 15.1196 14.4007 15.1196ZM14.4007 5.36963C15.992 5.36963 17.5181 6.00177 18.6433 7.12699C19.7685 8.25221 20.4007 9.77833 20.4007 11.3696C20.4007 12.9609 19.7685 14.4871 18.6433 15.6123C17.5181 16.7375 15.992 17.3696 14.4007 17.3696C12.8094 17.3696 11.2833 16.7375 10.158 15.6123C9.03282 14.4871 8.40068 12.9609 8.40068 11.3696C8.40068 9.77833 9.03282 8.25221 10.158 7.12699C11.2833 6.00177 12.8094 5.36963 14.4007 5.36963Z" fill="black" stroke="white"/>
</svg>
