<svg width="42" height="37" viewBox="0 0 42 37" fill="none" xmlns="http://www.w3.org/2000/svg">
    <path d="M35.7153 4.8636C36.3906 4.8636 36.9432 5.41612 36.9432 6.09143V30.6327L36.5595 30.1339L26.1229 16.6277C25.7776 16.175 25.2327 15.9141 24.6649 15.9141C24.097 15.9141 23.5598 16.175 23.2068 16.6277L16.8375 24.8695L14.4969 21.5928C14.1516 21.1093 13.5991 20.8254 13.0005 20.8254C12.4019 20.8254 11.8494 21.1093 11.5041 21.6004L5.36494 30.1952L5.01961 30.671V30.648V6.09143C5.01961 5.41612 5.57213 4.8636 6.24744 4.8636H35.7153ZM6.24744 1.18011C3.53854 1.18011 1.33612 3.38253 1.33612 6.09143V30.648C1.33612 33.3569 3.53854 35.5593 6.24744 35.5593H35.7153C38.4242 35.5593 40.6267 33.3569 40.6267 30.648V6.09143C40.6267 3.38253 38.4242 1.18011 35.7153 1.18011H6.24744ZM12.3866 15.9141C12.8703 15.9141 13.3493 15.8188 13.7962 15.6337C14.2431 15.4486 14.6492 15.1772 14.9912 14.8352C15.3332 14.4932 15.6046 14.0871 15.7897 13.6402C15.9748 13.1933 16.0701 12.7143 16.0701 12.2306C16.0701 11.7469 15.9748 11.2679 15.7897 10.821C15.6046 10.3741 15.3332 9.968 14.9912 9.62596C14.6492 9.28391 14.2431 9.01259 13.7962 8.82748C13.3493 8.64236 12.8703 8.54709 12.3866 8.54709C11.9029 8.54709 11.4239 8.64236 10.977 8.82748C10.5301 9.01259 10.124 9.28391 9.78197 9.62596C9.43992 9.968 9.1686 10.3741 8.98349 10.821C8.79837 11.2679 8.7031 11.7469 8.7031 12.2306C8.7031 12.7143 8.79837 13.1933 8.98349 13.6402C9.1686 14.0871 9.43992 14.4932 9.78197 14.8352C10.124 15.1772 10.5301 15.4486 10.977 15.6337C11.4239 15.8188 11.9029 15.9141 12.3866 15.9141Z" fill="black" stroke="white"/>
</svg>
