<svg height="100%" viewBox="0 0 287 46" fill="none" xmlns="http://www.w3.org/2000/svg">
    <path d="M60.7702 43.604C60.8484 43.7407 60.8874 43.9067 60.8874 44.1021C60.8874 44.395 60.78 44.6489 60.5652 44.8638C60.3698 45.0786 60.1062 45.186 59.7741 45.186C59.5593 45.186 59.364 45.1372 59.1882 45.0396C59.032 44.9419 58.905 44.7954 58.8073 44.6001C58.4362 43.8774 58.1042 42.979 57.8112 41.9048C57.5378 40.811 57.2937 39.6001 57.0788 38.272C56.8835 36.9438 56.7175 35.5181 56.5808 33.9946C56.4636 32.4517 56.3659 30.8599 56.2878 29.2192C54.823 29.4146 53.1726 29.6294 51.3366 29.8638C49.5202 30.0981 47.4402 30.3716 45.0964 30.6841C43.4558 30.9185 41.7859 31.1235 40.0866 31.2993C35.907 35.8501 31.5027 39.3071 26.8737 41.6704C22.2644 44.0142 17.6355 45.186 12.987 45.186C10.9167 45.186 9.11984 44.981 7.59641 44.5708C6.0925 44.1802 4.8425 43.7407 3.84641 43.2524C2.86984 42.7446 2.13742 42.2759 1.64914 41.8462C1.14133 41.4165 0.867889 41.1821 0.828827 41.1431C0.633514 40.9478 0.535858 40.6938 0.535858 40.3813C0.535858 40.0688 0.64328 39.8052 0.858124 39.5903C1.07297 39.3755 1.32687 39.2681 1.61984 39.2681C1.95187 39.2681 2.22531 39.3853 2.44016 39.6196C2.47922 39.6587 2.71359 39.8638 3.14328 40.2349C3.57297 40.5864 4.20773 40.9673 5.04758 41.3774C5.90695 41.7876 6.99094 42.1587 8.29953 42.4907C9.60812 42.8228 11.1609 42.9888 12.9577 42.9888C15.4187 42.9888 17.7722 42.6567 20.0183 41.9927C22.2644 41.3286 24.3835 40.4692 26.3757 39.4146C28.3874 38.3403 30.2527 37.1196 31.9714 35.7524C33.7097 34.3853 35.282 32.9985 36.6882 31.5923C35.3015 31.7095 33.9245 31.7974 32.5573 31.856C31.1902 31.9146 29.8425 31.9438 28.5144 31.9438C25.8972 31.9438 23.407 31.7974 21.0437 31.5044C18.6804 31.2114 16.6003 30.7231 14.8034 30.0396C13.0066 29.3364 11.571 28.4087 10.4968 27.2563C9.44211 26.104 8.91476 24.6685 8.91476 22.9497C8.91476 22.1685 9.07101 21.3872 9.38351 20.606C9.71555 19.8247 10.1062 19.1216 10.5554 18.4966C11.0046 17.8521 11.4734 17.3345 11.9616 16.9438C12.4499 16.5337 12.8698 16.3286 13.2214 16.3286C13.4948 16.3286 13.7487 16.4263 13.9831 16.6216C14.2175 16.8169 14.3347 17.0806 14.3347 17.4126C14.3347 17.5884 14.2956 17.7642 14.2175 17.9399C14.1394 18.0962 14.0222 18.2231 13.8659 18.3208C13.8269 18.3599 13.6609 18.4966 13.3679 18.731C13.0749 18.9653 12.7624 19.2876 12.4304 19.6978C12.0984 20.0884 11.7956 20.5669 11.5222 21.1333C11.2487 21.6802 11.112 22.2759 11.112 22.9204C11.112 24.0337 11.4929 25.02 12.2546 25.8794C13.0359 26.7192 14.1589 27.4321 15.6237 28.0181C17.1081 28.5845 18.9245 29.0142 21.073 29.3071C23.2214 29.6001 25.6726 29.7466 28.4265 29.7466C30.0085 29.7466 31.6784 29.6978 33.4362 29.6001C35.1941 29.5024 37.0495 29.356 39.0027 29.1606C39.9402 28.1255 40.7702 27.1489 41.4929 26.231C42.2155 25.313 42.8308 24.4927 43.3386 23.77C44.1784 22.5786 45.0573 21.3091 45.9753 19.9614C46.8933 18.6138 47.8015 17.2466 48.6999 15.8599C49.6179 14.4731 50.5066 13.106 51.3659 11.7583C52.2448 10.3911 53.0652 9.11182 53.8269 7.92041C54.5886 6.70947 55.2722 5.61572 55.8777 4.63916C56.4831 3.64307 56.9812 2.82275 57.3718 2.17822C57.489 1.65088 57.6648 1.17236 57.8991 0.742676C58.1335 0.293457 58.5144 0.0688477 59.0417 0.0688477C59.3347 0.0688477 59.6179 0.195801 59.8913 0.449707C60.1648 0.684082 60.3015 0.986816 60.3015 1.35791C60.3015 1.63135 60.2038 1.92432 60.0085 2.23682C59.8132 2.54932 59.6277 2.81299 59.4519 3.02783C59.3933 3.39893 59.2956 4.18994 59.1589 5.40088C59.0417 6.61182 58.9148 8.09619 58.778 9.854C58.6609 11.5923 58.5534 13.5161 58.4558 15.6255C58.3777 17.7153 58.3386 19.8345 58.3386 21.9829C58.3386 22.7837 58.3386 23.5747 58.3386 24.356C58.3386 25.1372 58.3581 25.9282 58.3972 26.729C61.3269 26.3579 63.4655 26.104 64.8132 25.9673C66.1609 25.811 66.8737 25.7329 66.9519 25.7329C67.2058 25.7329 67.4499 25.8403 67.6843 26.0552C67.9382 26.2505 68.0652 26.5142 68.0652 26.8462C68.0652 27.1196 67.9675 27.3638 67.7722 27.5786C67.5964 27.7739 67.362 27.8911 67.0691 27.9302C66.7175 27.9692 66.3073 28.0181 65.8386 28.0767C65.3698 28.1353 64.7937 28.2036 64.1101 28.2817C63.4265 28.3599 62.6257 28.4575 61.7077 28.5747C60.7898 28.6724 59.7155 28.7993 58.4851 28.9556C58.5437 30.5571 58.6316 32.1001 58.7487 33.5845C58.8855 35.0493 59.0417 36.4165 59.2175 37.686C59.4128 38.9556 59.6374 40.0981 59.8913 41.1138C60.1452 42.1294 60.4382 42.9595 60.7702 43.604ZM44.8034 28.4868C47.1081 28.1743 49.198 27.9009 51.073 27.6665C52.9675 27.4126 54.6765 27.188 56.1999 26.9927C56.1804 26.1528 56.1609 25.313 56.1413 24.4731C56.1413 23.6333 56.1413 22.7837 56.1413 21.9243C56.1413 19.1704 56.1902 16.5435 56.2878 14.0435C56.3855 11.5239 56.5222 9.33643 56.698 7.48096C55.9167 8.71143 55.0476 10.0786 54.0905 11.5825C53.153 13.0669 52.1765 14.5903 51.1609 16.1528C50.1452 17.6958 49.1198 19.229 48.0847 20.7524C47.0495 22.2759 46.0632 23.7017 45.1257 25.0298C44.657 25.6938 44.1784 26.3384 43.6902 26.9634C43.2019 27.5884 42.7136 28.2036 42.2253 28.8091C42.655 28.77 43.0749 28.7212 43.4851 28.6626C43.9148 28.604 44.3542 28.5454 44.8034 28.4868ZM86.1777 35.6353C85.9628 36.0845 85.6894 36.6216 85.3573 37.2466C85.0448 37.8521 84.6835 38.4868 84.2734 39.1509C83.8632 39.8149 83.4042 40.479 82.8964 41.1431C82.3886 41.7876 81.832 42.3735 81.2265 42.9009C80.6405 43.4087 80.0058 43.8188 79.3222 44.1313C78.6581 44.4634 77.9452 44.6294 77.1835 44.6294C76.0116 44.6294 75.0058 44.2681 74.1659 43.5454C73.3261 42.8228 72.6132 41.8755 72.0273 40.7036C71.4413 39.5317 70.9628 38.2036 70.5917 36.7192C70.2402 35.2153 69.9667 33.6919 69.7714 32.1489C69.5761 30.5864 69.4394 29.0728 69.3613 27.6079C69.3027 26.1431 69.2734 24.8442 69.2734 23.7114C69.2734 22.0708 69.3222 20.3716 69.4198 18.6138C69.537 16.856 69.7128 15.1372 69.9472 13.4575C70.1816 11.7778 70.4745 10.186 70.8261 8.68213C71.1972 7.17822 71.6269 5.85986 72.1152 4.72705C72.623 3.59424 73.1991 2.6958 73.8437 2.03174C74.4882 1.36768 75.2206 1.03564 76.0409 1.03564C76.6855 1.03564 77.2616 1.19189 77.7695 1.50439C78.2968 1.79736 78.7363 2.28564 79.0878 2.96924C79.4394 3.65283 79.7128 4.5415 79.9081 5.63525C80.1034 6.729 80.2011 8.06689 80.2011 9.64893C80.2011 11.6021 79.996 13.6235 79.5859 15.7134C79.1757 17.7837 78.6191 19.8735 77.9159 21.9829C77.2128 24.0923 76.3827 26.2017 75.4257 28.311C74.4687 30.4009 73.4433 32.4419 72.3495 34.4341C72.8378 36.9146 73.4921 38.8677 74.3124 40.2935C75.1327 41.6997 76.1191 42.4028 77.2714 42.4028C78.0527 42.4028 78.8046 42.1001 79.5273 41.4946C80.2499 40.8696 80.914 40.1372 81.5195 39.2974C82.1249 38.4575 82.6523 37.6079 83.1015 36.7485C83.5702 35.8696 83.9316 35.1665 84.1855 34.6392C84.2831 34.4438 84.4198 34.2974 84.5956 34.1997C84.7714 34.0825 84.9667 34.0239 85.1816 34.0239C85.5136 34.0239 85.7773 34.1411 85.9726 34.3755C86.1874 34.6099 86.2948 34.8735 86.2948 35.1665C86.2948 35.2837 86.2558 35.4399 86.1777 35.6353ZM71.4999 23.8579C71.4999 25.1079 71.5292 26.3091 71.5878 27.4614C71.6464 28.6138 71.7245 29.7173 71.8222 30.772C72.6425 29.1899 73.4238 27.5103 74.1659 25.7329C74.9081 23.936 75.5624 22.1294 76.1288 20.313C76.6952 18.4771 77.1445 16.6606 77.4765 14.8638C77.828 13.0474 78.0038 11.3188 78.0038 9.67822C78.0038 7.37354 77.8183 5.72314 77.4472 4.72705C77.0761 3.73096 76.578 3.23291 75.953 3.23291C75.5429 3.23291 75.1425 3.51611 74.7519 4.08252C74.3808 4.64893 74.0292 5.42041 73.6972 6.39697C73.3652 7.37354 73.0624 8.52588 72.789 9.854C72.5155 11.1821 72.2812 12.6079 72.0859 14.1313C71.9101 15.6548 71.7636 17.2466 71.6464 18.9067C71.5488 20.5669 71.4999 22.2173 71.4999 23.8579ZM88.0304 40.5278C88.4405 41.0942 88.9679 41.5532 89.6124 41.9048C90.257 42.2368 91.048 42.4028 91.9855 42.4028C92.9425 42.4028 93.8116 42.1782 94.5929 41.729C95.3741 41.2603 96.087 40.6548 96.7316 39.9126C97.3761 39.1704 97.9523 38.3403 98.4601 37.4224C98.9679 36.5044 99.4269 35.5864 99.837 34.6685C99.9347 34.4536 100.071 34.2974 100.247 34.1997C100.423 34.0825 100.618 34.0239 100.833 34.0239C101.165 34.0239 101.429 34.1411 101.624 34.3755C101.839 34.6099 101.946 34.8638 101.946 35.1372C101.946 35.2349 101.937 35.3228 101.917 35.4009C101.898 35.4595 101.868 35.5278 101.829 35.606C100.482 38.5747 99.007 40.811 97.4054 42.3149C95.8234 43.8188 94.0265 44.5903 92.0148 44.6294C90.7257 44.6294 89.6124 44.3755 88.6749 43.8677C87.7374 43.3794 86.9659 42.7446 86.3605 41.9634C85.755 41.1626 85.3058 40.2642 85.0128 39.2681C84.7198 38.272 84.5734 37.2759 84.5734 36.2798C84.5734 35.2837 84.6905 34.3657 84.9249 33.5259C85.1788 32.686 85.5304 31.9536 85.9796 31.3286C86.4484 30.7036 86.9952 30.2153 87.6202 29.8638C88.2648 29.5122 88.9679 29.3364 89.7296 29.3364C90.1788 29.3364 90.6183 29.4341 91.048 29.6294C91.4972 29.8052 91.8976 30.0688 92.2491 30.4204C92.6007 30.7524 92.8839 31.1626 93.0987 31.6509C93.3136 32.1392 93.421 32.6958 93.421 33.3208C93.421 34.1216 93.2843 34.8735 93.0109 35.5767C92.7374 36.2798 92.3566 36.9341 91.8683 37.5396C91.3995 38.145 90.8331 38.7017 90.1691 39.2095C89.505 39.7173 88.7921 40.1567 88.0304 40.5278ZM87.1515 38.6235C87.757 38.3696 88.3038 38.0474 88.7921 37.6567C89.2999 37.2661 89.7296 36.8364 90.0812 36.3677C90.4327 35.8989 90.7062 35.4106 90.9015 34.9028C91.0968 34.3755 91.1945 33.8481 91.1945 33.3208C91.1945 32.7349 91.048 32.2954 90.755 32.0024C90.462 31.6899 90.1202 31.5337 89.7296 31.5337C89.2023 31.5337 88.753 31.6802 88.382 31.9731C88.0109 32.2661 87.7081 32.647 87.4737 33.1157C87.2394 33.5845 87.0636 34.1118 86.9464 34.6978C86.8487 35.2642 86.7999 35.8306 86.7999 36.397C86.7999 36.7485 86.8292 37.1196 86.8878 37.5103C86.9659 37.9009 87.0538 38.272 87.1515 38.6235ZM117.627 27.1685C114.619 30.8794 111.875 34.7856 109.395 38.8872C110.078 39.9028 110.83 40.7427 111.651 41.4067C112.471 42.0708 113.399 42.4028 114.434 42.4028C115.352 42.4028 116.221 42.1392 117.041 41.6118C117.862 41.0845 118.604 40.4399 119.268 39.6782C119.951 38.897 120.537 38.0669 121.026 37.188C121.534 36.2896 121.924 35.479 122.198 34.7563C122.393 34.2681 122.735 34.0239 123.223 34.0239C123.555 34.0239 123.819 34.1411 124.014 34.3755C124.229 34.5903 124.336 34.8442 124.336 35.1372C124.336 35.2349 124.317 35.3618 124.278 35.5181C124.297 35.479 124.209 35.6743 124.014 36.104C123.819 36.5337 123.526 37.0903 123.135 37.7739C122.744 38.438 122.266 39.1704 121.7 39.9712C121.133 40.772 120.479 41.5239 119.737 42.2271C119.014 42.9106 118.203 43.4771 117.305 43.9263C116.407 44.395 115.44 44.6294 114.405 44.6294C113.116 44.6294 111.953 44.2876 110.918 43.604C109.903 42.9204 108.985 42.0513 108.164 40.9966C107.832 41.5825 107.51 42.1685 107.198 42.7544C106.885 43.3403 106.573 43.9263 106.26 44.5122C106.045 44.9224 105.713 45.1274 105.264 45.1274C104.932 45.1274 104.659 45.0103 104.444 44.7759C104.248 44.5415 104.151 44.2876 104.151 44.0142C104.151 43.8579 104.2 43.6821 104.297 43.4868C104.688 42.7251 105.088 41.9634 105.498 41.2017C105.909 40.4399 106.338 39.688 106.787 38.9458C106.123 37.7935 105.557 36.6216 105.088 35.4302C104.619 34.2192 104.248 33.0864 103.975 32.0317L102.246 35.606C102.032 36.0356 101.7 36.2505 101.25 36.2505C100.918 36.2505 100.645 36.1333 100.43 35.8989C100.235 35.6646 100.137 35.4106 100.137 35.1372C100.137 34.9614 100.176 34.8052 100.254 34.6685L103.448 27.9888C103.545 27.813 103.682 27.6665 103.858 27.5493C104.034 27.4321 104.229 27.3735 104.444 27.3735C104.756 27.3735 105.01 27.481 105.205 27.6958C105.401 27.8911 105.518 28.1353 105.557 28.4282C105.576 28.7017 105.645 29.1313 105.762 29.7173C105.899 30.3032 106.075 30.9771 106.289 31.7388C106.524 32.481 106.787 33.2817 107.08 34.1411C107.393 35.0005 107.754 35.8501 108.164 36.6899C110.508 32.8813 113.096 29.2388 115.928 25.7622C116.123 25.5083 116.407 25.3813 116.778 25.3813C117.09 25.3813 117.354 25.4888 117.569 25.7036C117.784 25.9185 117.891 26.1724 117.891 26.4653C117.891 26.7388 117.803 26.9731 117.627 27.1685ZM152.71 35.6353C152.495 36.0845 152.221 36.6216 151.889 37.2466C151.577 37.8521 151.216 38.4868 150.805 39.1509C150.395 39.8149 149.936 40.479 149.428 41.1431C148.921 41.7876 148.364 42.3735 147.759 42.9009C147.173 43.4087 146.538 43.8188 145.854 44.1313C145.19 44.4634 144.477 44.6294 143.716 44.6294C142.544 44.6294 141.538 44.2681 140.698 43.5454C139.858 42.8228 139.145 41.8755 138.559 40.7036C137.973 39.5317 137.495 38.2036 137.124 36.7192C136.772 35.2153 136.499 33.6919 136.303 32.1489C136.108 30.5864 135.971 29.0728 135.893 27.6079C135.835 26.1431 135.805 24.8442 135.805 23.7114C135.805 22.0708 135.854 20.3716 135.952 18.6138C136.069 16.856 136.245 15.1372 136.479 13.4575C136.714 11.7778 137.007 10.186 137.358 8.68213C137.729 7.17822 138.159 5.85986 138.647 4.72705C139.155 3.59424 139.731 2.6958 140.376 2.03174C141.02 1.36768 141.753 1.03564 142.573 1.03564C143.217 1.03564 143.794 1.19189 144.301 1.50439C144.829 1.79736 145.268 2.28564 145.62 2.96924C145.971 3.65283 146.245 4.5415 146.44 5.63525C146.635 6.729 146.733 8.06689 146.733 9.64893C146.733 11.6021 146.528 13.6235 146.118 15.7134C145.708 17.7837 145.151 19.8735 144.448 21.9829C143.745 24.0923 142.915 26.2017 141.958 28.311C141.001 30.4009 139.975 32.4419 138.882 34.4341C139.37 36.9146 140.024 38.8677 140.844 40.2935C141.665 41.6997 142.651 42.4028 143.803 42.4028C144.585 42.4028 145.337 42.1001 146.059 41.4946C146.782 40.8696 147.446 40.1372 148.051 39.2974C148.657 38.4575 149.184 37.6079 149.634 36.7485C150.102 35.8696 150.464 35.1665 150.717 34.6392C150.815 34.4438 150.952 34.2974 151.128 34.1997C151.303 34.0825 151.499 34.0239 151.714 34.0239C152.046 34.0239 152.309 34.1411 152.505 34.3755C152.719 34.6099 152.827 34.8735 152.827 35.1665C152.827 35.2837 152.788 35.4399 152.71 35.6353ZM138.032 23.8579C138.032 25.1079 138.061 26.3091 138.12 27.4614C138.178 28.6138 138.257 29.7173 138.354 30.772C139.175 29.1899 139.956 27.5103 140.698 25.7329C141.44 23.936 142.094 22.1294 142.661 20.313C143.227 18.4771 143.676 16.6606 144.009 14.8638C144.36 13.0474 144.536 11.3188 144.536 9.67822C144.536 7.37354 144.35 5.72314 143.979 4.72705C143.608 3.73096 143.11 3.23291 142.485 3.23291C142.075 3.23291 141.675 3.51611 141.284 4.08252C140.913 4.64893 140.561 5.42041 140.229 6.39697C139.897 7.37354 139.594 8.52588 139.321 9.854C139.048 11.1821 138.813 12.6079 138.618 14.1313C138.442 15.6548 138.296 17.2466 138.178 18.9067C138.081 20.5669 138.032 22.2173 138.032 23.8579ZM164.553 40.5278C164.064 40.5278 163.635 40.4888 163.264 40.4106C162.971 40.9966 162.619 41.5435 162.209 42.0513C161.799 42.5396 161.32 42.9692 160.773 43.3403C160.246 43.7114 159.65 44.0044 158.986 44.2192C158.322 44.4341 157.6 44.5415 156.818 44.5415C155.9 44.5415 155.06 44.3755 154.299 44.0435C153.537 43.731 152.873 43.2915 152.307 42.7251C151.74 42.1392 151.301 41.4458 150.988 40.645C150.676 39.8247 150.519 38.9263 150.519 37.9497C150.519 36.6997 150.744 35.6157 151.193 34.6978C151.643 33.7603 152.16 32.9888 152.746 32.3833C153.332 31.7583 153.918 31.2993 154.504 31.0063C155.09 30.6938 155.529 30.5376 155.822 30.5376C156.154 30.5376 156.398 30.6255 156.555 30.8013C156.73 30.9771 156.818 31.2114 156.818 31.5044C156.818 31.8364 156.711 32.0903 156.496 32.2661C156.301 32.4224 156.047 32.5786 155.734 32.7349C155.422 32.8911 155.09 33.1157 154.738 33.4087C154.387 33.6821 154.055 34.0337 153.742 34.4634C153.449 34.8931 153.205 35.4009 153.01 35.9868C152.814 36.5728 152.717 37.2271 152.717 37.9497C152.717 38.5942 152.814 39.1997 153.01 39.7661C153.205 40.313 153.488 40.7915 153.859 41.2017C154.23 41.5923 154.67 41.9048 155.178 42.1392C155.685 42.354 156.252 42.4614 156.877 42.4614C157.99 42.4614 158.908 42.2075 159.631 41.6997C160.373 41.1724 160.939 40.5083 161.33 39.7075C160.178 39.1021 159.23 38.2427 158.488 37.1294C157.746 36.0161 157.375 34.7661 157.375 33.3794C157.375 32.2661 157.639 31.3579 158.166 30.6548C158.713 29.9517 159.426 29.6001 160.305 29.6001C160.832 29.6001 161.33 29.7271 161.799 29.981C162.268 30.2349 162.678 30.6353 163.029 31.1821C163.4 31.729 163.693 32.4321 163.908 33.2915C164.123 34.1509 164.23 35.1763 164.23 36.3677C164.23 36.9927 164.152 37.647 163.996 38.3306C164.113 38.3501 164.23 38.3599 164.348 38.3599C164.465 38.3599 164.592 38.3599 164.728 38.3599C165.393 38.3599 165.988 38.2817 166.516 38.1255C167.043 37.9692 167.521 37.7349 167.951 37.4224C168.381 37.1099 168.762 36.7095 169.094 36.2212C169.445 35.7329 169.777 35.1665 170.09 34.522C170.148 34.4048 170.275 34.2974 170.471 34.1997C170.666 34.0825 170.861 34.0239 171.057 34.0239C171.31 34.0239 171.545 34.1313 171.76 34.3462C171.994 34.5415 172.111 34.8052 172.111 35.1372C172.111 35.2935 172.072 35.4692 171.994 35.6646C171.916 35.8403 171.838 36.0063 171.76 36.1626C171.428 36.7485 171.037 37.3149 170.588 37.8618C170.158 38.3892 169.641 38.8579 169.035 39.2681C168.449 39.6587 167.785 39.9712 167.043 40.2056C166.301 40.4399 165.471 40.5474 164.553 40.5278ZM159.543 33.145C159.543 33.5161 159.592 33.9067 159.689 34.3169C159.787 34.7271 159.934 35.1372 160.129 35.5474C160.344 35.938 160.598 36.3188 160.891 36.6899C161.203 37.0415 161.564 37.3442 161.975 37.5981C162.033 37.188 162.062 36.7876 162.062 36.397C162.062 35.8696 162.023 35.3325 161.945 34.7856C161.867 34.2388 161.75 33.7407 161.594 33.2915C161.457 32.8228 161.281 32.4517 161.066 32.1782C160.851 31.8853 160.598 31.7388 160.305 31.7388C160.187 31.7388 160.031 31.8267 159.836 32.0024C159.641 32.1782 159.543 32.5591 159.543 33.145ZM187.067 32.9106C186.95 33.2231 186.803 33.5747 186.627 33.9653C186.471 34.356 186.285 34.7661 186.071 35.1958C185.895 35.5278 185.709 35.7915 185.514 35.9868C185.338 36.1626 185.104 36.2505 184.811 36.2505C184.479 36.2505 184.215 36.1528 184.02 35.9575C183.825 35.7427 183.727 35.4985 183.727 35.2251C183.727 35.1274 183.737 35.0493 183.756 34.9907C183.776 34.9126 183.825 34.7954 183.903 34.6392C184.41 33.6626 184.782 32.813 185.016 32.0903C185.27 31.3481 185.475 30.5767 185.631 29.7759C185.494 29.3267 185.397 28.9458 185.338 28.6333C185.28 28.3208 185.25 27.9985 185.25 27.6665C185.25 27.022 185.387 26.5044 185.66 26.1138C185.934 25.7036 186.315 25.4985 186.803 25.4985C187.252 25.4985 187.604 25.6938 187.858 26.0845C188.131 26.4751 188.268 26.9536 188.268 27.52C188.268 27.8325 188.239 28.145 188.18 28.4575C188.121 28.77 188.043 29.1606 187.946 29.6294C188.395 30.7427 188.844 31.729 189.293 32.5884C189.742 33.4478 190.143 34.2388 190.494 34.9614C190.846 35.6646 191.129 36.3286 191.344 36.9536C191.578 37.5786 191.696 38.2036 191.696 38.8286C191.696 39.6489 191.53 40.4302 191.198 41.1724C190.866 41.9146 190.319 42.5396 189.557 43.0474C189.655 43.0669 189.752 43.0767 189.85 43.0767C189.948 43.0767 190.045 43.0767 190.143 43.0767C191.256 43.0767 192.282 42.8228 193.219 42.3149C194.157 41.8071 194.996 41.1528 195.739 40.3521C196.5 39.5317 197.174 38.6333 197.76 37.6567C198.346 36.6606 198.854 35.6743 199.284 34.6978C199.479 34.2485 199.752 34.0239 200.104 34.0239C200.436 34.0239 200.69 34.1411 200.866 34.3755C201.061 34.6099 201.159 34.8638 201.159 35.1372C201.159 35.2935 201.129 35.4399 201.071 35.5767C200.856 36.104 200.573 36.7095 200.221 37.3931C199.889 38.0571 199.479 38.7505 198.991 39.4731C198.522 40.1763 197.975 40.8696 197.35 41.5532C196.725 42.2368 196.022 42.8521 195.241 43.3989C194.479 43.9263 193.639 44.3462 192.721 44.6587C191.803 44.9907 190.797 45.1567 189.703 45.1567C188.395 45.1567 187.174 44.9224 186.041 44.4536C184.928 44.0044 184.02 43.2524 183.317 42.1978C183.2 42.022 183.141 41.8364 183.141 41.6411C183.141 41.3481 183.248 41.0942 183.463 40.8794C183.698 40.645 183.961 40.5278 184.254 40.5278C184.567 40.5278 184.83 40.6353 185.045 40.8501C185.065 40.8892 185.133 40.9575 185.25 41.0552C185.367 41.1333 185.504 41.231 185.66 41.3481C185.836 41.4458 186.032 41.5337 186.246 41.6118C186.481 41.6899 186.715 41.729 186.95 41.729C187.418 41.729 187.809 41.6313 188.121 41.436C188.453 41.2407 188.717 41.0063 188.912 40.7329C189.108 40.4399 189.244 40.1372 189.323 39.8247C189.42 39.4927 189.469 39.2095 189.469 38.9751C189.469 38.4868 189.391 37.9985 189.235 37.5103C189.078 37.022 188.873 36.5337 188.619 36.0454C188.385 35.5571 188.121 35.0591 187.828 34.5513C187.555 34.0239 187.301 33.4771 187.067 32.9106ZM223.08 14.4243C223.08 14.7368 222.972 14.9907 222.757 15.186C222.542 15.3618 222.279 15.4497 221.966 15.4497H207.113V15.772C207.113 16.9634 207.025 18.2329 206.849 19.5806C206.673 20.9282 206.429 22.2759 206.117 23.6235C205.824 24.9517 205.482 26.2505 205.091 27.52C204.72 28.7896 204.33 29.9614 203.919 31.0356C203.529 32.1099 203.138 33.0474 202.748 33.8481C202.357 34.6294 202.005 35.2153 201.693 35.606C201.947 36.5044 202.25 37.3442 202.601 38.1255C202.953 38.8872 203.343 39.561 203.773 40.147C204.222 40.7134 204.701 41.1626 205.209 41.4946C205.716 41.8267 206.263 41.9927 206.849 41.9927C207.533 41.9927 208.207 41.7095 208.871 41.1431C209.554 40.5571 210.179 39.8735 210.746 39.0923C211.332 38.2915 211.839 37.4907 212.269 36.6899C212.718 35.8696 213.041 35.2153 213.236 34.7271C213.431 34.2583 213.773 34.0239 214.261 34.0239C214.593 34.0239 214.857 34.1411 215.052 34.3755C215.267 34.6099 215.375 34.8638 215.375 35.1372C215.375 35.2739 215.345 35.4106 215.287 35.5474C215.228 35.6841 215.082 35.9966 214.847 36.4849C214.632 36.9731 214.339 37.5396 213.968 38.1841C213.617 38.8286 213.197 39.5122 212.709 40.2349C212.24 40.938 211.703 41.5825 211.097 42.1685C210.511 42.7544 209.876 43.2427 209.193 43.6333C208.509 44.0239 207.787 44.2192 207.025 44.2192C205.677 44.2192 204.466 43.7798 203.392 42.9009C202.318 42.022 201.4 40.7915 200.638 39.2095C199.896 37.6274 199.33 35.7524 198.939 33.5845C198.548 31.4165 198.353 29.0435 198.353 26.4653C198.353 25.8208 198.363 25.0688 198.382 24.2095C198.402 23.3306 198.441 22.4126 198.5 21.4556C198.558 20.479 198.646 19.4829 198.763 18.4673C198.88 17.4321 199.037 16.4263 199.232 15.4497H188.714C188.402 15.4497 188.138 15.3618 187.923 15.186C187.709 14.9907 187.601 14.7368 187.601 14.4243C187.601 14.1118 187.709 13.8677 187.923 13.6919C188.138 13.4966 188.402 13.3989 188.714 13.3989H199.73C199.925 12.6958 200.15 12.0513 200.404 11.4653C200.677 10.8794 200.98 10.3716 201.312 9.94189C201.664 9.51221 202.044 9.18018 202.455 8.9458C202.884 8.69189 203.353 8.56494 203.861 8.56494C204.349 8.56494 204.769 8.69189 205.121 8.9458C205.492 9.18018 205.804 9.51221 206.058 9.94189C206.312 10.3716 206.507 10.8794 206.644 11.4653C206.8 12.0513 206.917 12.6958 206.996 13.3989H221.966C222.279 13.3989 222.542 13.4966 222.757 13.6919C222.972 13.8677 223.08 14.1118 223.08 14.4243ZM201.019 32.6763C201.605 31.3872 202.132 30.0005 202.601 28.5161C203.089 27.0122 203.5 25.4985 203.832 23.9751C204.183 22.4517 204.447 20.9575 204.623 19.4927C204.818 18.0278 204.916 16.6802 204.916 15.4497H201.459C201.185 16.6606 200.96 18.1646 200.785 19.9614C200.628 21.7388 200.55 23.9067 200.55 26.4653C200.55 27.8911 200.589 29.0923 200.667 30.0688C200.746 31.0259 200.863 31.895 201.019 32.6763ZM203.744 10.7622C203.568 10.7622 203.314 10.9575 202.982 11.3481C202.65 11.7192 202.318 12.4028 201.986 13.3989H204.798C204.701 12.5786 204.554 11.9341 204.359 11.4653C204.183 10.9966 203.978 10.7622 203.744 10.7622ZM201.488 34.7856V34.8149V34.7856ZM227.159 40.5278C226.671 40.5278 226.241 40.4888 225.87 40.4106C225.577 40.9966 225.225 41.5435 224.815 42.0513C224.405 42.5396 223.926 42.9692 223.38 43.3403C222.852 43.7114 222.257 44.0044 221.592 44.2192C220.928 44.4341 220.206 44.5415 219.425 44.5415C218.507 44.5415 217.667 44.3755 216.905 44.0435C216.143 43.731 215.479 43.2915 214.913 42.7251C214.346 42.1392 213.907 41.4458 213.594 40.645C213.282 39.8247 213.126 38.9263 213.126 37.9497C213.126 36.6997 213.35 35.6157 213.8 34.6978C214.249 33.7603 214.766 32.9888 215.352 32.3833C215.938 31.7583 216.524 31.2993 217.11 31.0063C217.696 30.6938 218.135 30.5376 218.428 30.5376C218.76 30.5376 219.005 30.6255 219.161 30.8013C219.337 30.9771 219.425 31.2114 219.425 31.5044C219.425 31.8364 219.317 32.0903 219.102 32.2661C218.907 32.4224 218.653 32.5786 218.341 32.7349C218.028 32.8911 217.696 33.1157 217.344 33.4087C216.993 33.6821 216.661 34.0337 216.348 34.4634C216.055 34.8931 215.811 35.4009 215.616 35.9868C215.421 36.5728 215.323 37.2271 215.323 37.9497C215.323 38.5942 215.421 39.1997 215.616 39.7661C215.811 40.313 216.094 40.7915 216.466 41.2017C216.837 41.5923 217.276 41.9048 217.784 42.1392C218.292 42.354 218.858 42.4614 219.483 42.4614C220.596 42.4614 221.514 42.2075 222.237 41.6997C222.979 41.1724 223.546 40.5083 223.936 39.7075C222.784 39.1021 221.837 38.2427 221.094 37.1294C220.352 36.0161 219.981 34.7661 219.981 33.3794C219.981 32.2661 220.245 31.3579 220.772 30.6548C221.319 29.9517 222.032 29.6001 222.911 29.6001C223.438 29.6001 223.936 29.7271 224.405 29.981C224.874 30.2349 225.284 30.6353 225.635 31.1821C226.007 31.729 226.3 32.4321 226.514 33.2915C226.729 34.1509 226.837 35.1763 226.837 36.3677C226.837 36.9927 226.759 37.647 226.602 38.3306C226.719 38.3501 226.837 38.3599 226.954 38.3599C227.071 38.3599 227.198 38.3599 227.335 38.3599C227.999 38.3599 228.594 38.2817 229.122 38.1255C229.649 37.9692 230.128 37.7349 230.557 37.4224C230.987 37.1099 231.368 36.7095 231.7 36.2212C232.051 35.7329 232.384 35.1665 232.696 34.522C232.755 34.4048 232.882 34.2974 233.077 34.1997C233.272 34.0825 233.467 34.0239 233.663 34.0239C233.917 34.0239 234.151 34.1313 234.366 34.3462C234.6 34.5415 234.717 34.8052 234.717 35.1372C234.717 35.2935 234.678 35.4692 234.6 35.6646C234.522 35.8403 234.444 36.0063 234.366 36.1626C234.034 36.7485 233.643 37.3149 233.194 37.8618C232.764 38.3892 232.247 38.8579 231.641 39.2681C231.055 39.6587 230.391 39.9712 229.649 40.2056C228.907 40.4399 228.077 40.5474 227.159 40.5278ZM222.149 33.145C222.149 33.5161 222.198 33.9067 222.296 34.3169C222.393 34.7271 222.54 35.1372 222.735 35.5474C222.95 35.938 223.204 36.3188 223.497 36.6899C223.809 37.0415 224.171 37.3442 224.581 37.5981C224.639 37.188 224.669 36.7876 224.669 36.397C224.669 35.8696 224.63 35.3325 224.551 34.7856C224.473 34.2388 224.356 33.7407 224.2 33.2915C224.063 32.8228 223.887 32.4517 223.673 32.1782C223.458 31.8853 223.204 31.7388 222.911 31.7388C222.794 31.7388 222.637 31.8267 222.442 32.0024C222.247 32.1782 222.149 32.5591 222.149 33.145ZM236.014 31.7095C235.935 32.2368 235.838 32.7349 235.721 33.2036C235.603 33.6528 235.486 34.0532 235.369 34.4048C235.271 34.7368 235.184 35.0103 235.105 35.2251C235.027 35.4399 234.978 35.5571 234.959 35.5767C234.764 36.0259 234.422 36.2505 233.934 36.2505C233.66 36.2505 233.406 36.1528 233.172 35.9575C232.937 35.7427 232.82 35.479 232.82 35.1665C232.82 35.0493 232.84 34.9614 232.879 34.9028C232.918 34.8442 232.977 34.7271 233.055 34.5513C233.133 34.3755 233.23 34.0825 233.348 33.6724C233.465 33.2622 233.611 32.6274 233.787 31.7681C233.455 31.7681 233.113 31.7583 232.762 31.7388C232.41 31.7192 232.088 31.6509 231.795 31.5337C231.482 31.4165 231.228 31.231 231.033 30.9771C230.838 30.7231 230.74 30.3716 230.74 29.9224C230.74 29.5903 230.838 29.1411 231.033 28.5747C231.209 28.0083 231.453 27.4517 231.766 26.9048C232.078 26.3579 232.43 25.8892 232.82 25.4985C233.211 25.0884 233.602 24.8833 233.992 24.8833C234.441 24.8833 234.803 25.0493 235.076 25.3813C235.369 25.7134 235.594 26.1235 235.75 26.6118C235.906 27.0806 236.014 27.5786 236.072 28.106C236.15 28.6333 236.189 29.0923 236.189 29.4829C236.521 29.4829 236.844 29.4829 237.156 29.4829C237.488 29.4634 237.801 29.4536 238.094 29.4536C239.207 29.4536 240.057 29.6978 240.643 30.186C241.228 30.6743 241.521 31.4751 241.521 32.5884C241.521 33.0376 241.492 33.5063 241.434 33.9946C241.375 34.4829 241.307 34.9907 241.228 35.5181C241.15 36.0259 241.082 36.5337 241.023 37.0415C240.965 37.5493 240.935 38.0474 240.935 38.5356C240.935 39.2388 241.033 39.8247 241.228 40.2935C241.424 40.7427 241.668 41.104 241.961 41.3774C242.254 41.6509 242.566 41.8462 242.898 41.9634C243.23 42.061 243.533 42.1099 243.807 42.1099C244.646 42.1099 245.437 41.8364 246.18 41.2896C246.922 40.7427 247.605 40.0884 248.23 39.3267C248.855 38.5454 249.412 37.7251 249.9 36.8657C250.408 36.0063 250.828 35.2544 251.16 34.6099C251.258 34.4341 251.394 34.2974 251.57 34.1997C251.746 34.1021 251.932 34.0532 252.127 34.0532C252.478 34.0532 252.752 34.1704 252.947 34.4048C253.143 34.6196 253.24 34.8638 253.24 35.1372C253.24 35.3325 253.201 35.5083 253.123 35.6646C252.674 36.4653 252.146 37.3735 251.541 38.3892C250.955 39.3853 250.281 40.3228 249.519 41.2017C248.758 42.0806 247.898 42.8228 246.941 43.4282C246.004 44.0337 244.969 44.3364 243.836 44.3364C243.133 44.3364 242.469 44.1997 241.844 43.9263C241.219 43.6724 240.672 43.3013 240.203 42.813C239.754 42.3052 239.393 41.6899 239.119 40.9673C238.846 40.2251 238.709 39.395 238.709 38.4771C238.709 37.5005 238.807 36.5337 239.002 35.5767C239.197 34.6001 239.295 33.6724 239.295 32.7935C239.295 32.4224 239.207 32.1489 239.031 31.9731C238.875 31.7778 238.514 31.6802 237.947 31.6802C237.674 31.6802 237.371 31.6802 237.039 31.6802C236.727 31.6802 236.385 31.6899 236.014 31.7095ZM234.051 29.5415C234.051 29.4048 234.041 29.229 234.021 29.0142C234.021 28.7798 234.002 28.5552 233.963 28.3403C233.943 28.1255 233.904 27.9399 233.846 27.7837C233.807 27.6274 233.758 27.5493 233.699 27.5493C233.641 27.5493 233.562 27.6274 233.465 27.7837C233.387 27.9204 233.299 28.0962 233.201 28.311C233.103 28.5063 233.016 28.7212 232.937 28.9556C232.859 29.1899 232.801 29.3853 232.762 29.5415H234.051ZM275.191 14.4243C275.191 14.7368 275.083 14.9907 274.868 15.186C274.653 15.3618 274.39 15.4497 274.077 15.4497H259.224V15.772C259.224 16.9634 259.136 18.2329 258.96 19.5806C258.784 20.9282 258.54 22.2759 258.228 23.6235C257.935 24.9517 257.593 26.2505 257.202 27.52C256.831 28.7896 256.441 29.9614 256.03 31.0356C255.64 32.1099 255.249 33.0474 254.859 33.8481C254.468 34.6294 254.116 35.2153 253.804 35.606C254.058 36.5044 254.36 37.3442 254.712 38.1255C255.064 38.8872 255.454 39.561 255.884 40.147C256.333 40.7134 256.812 41.1626 257.319 41.4946C257.827 41.8267 258.374 41.9927 258.96 41.9927C259.644 41.9927 260.318 41.7095 260.982 41.1431C261.665 40.5571 262.29 39.8735 262.857 39.0923C263.443 38.2915 263.95 37.4907 264.38 36.6899C264.829 35.8696 265.151 35.2153 265.347 34.7271C265.542 34.2583 265.884 34.0239 266.372 34.0239C266.704 34.0239 266.968 34.1411 267.163 34.3755C267.378 34.6099 267.485 34.8638 267.485 35.1372C267.485 35.2739 267.456 35.4106 267.398 35.5474C267.339 35.6841 267.193 35.9966 266.958 36.4849C266.743 36.9731 266.45 37.5396 266.079 38.1841C265.728 38.8286 265.308 39.5122 264.819 40.2349C264.351 40.938 263.814 41.5825 263.208 42.1685C262.622 42.7544 261.987 43.2427 261.304 43.6333C260.62 44.0239 259.898 44.2192 259.136 44.2192C257.788 44.2192 256.577 43.7798 255.503 42.9009C254.429 42.022 253.511 40.7915 252.749 39.2095C252.007 37.6274 251.441 35.7524 251.05 33.5845C250.659 31.4165 250.464 29.0435 250.464 26.4653C250.464 25.8208 250.474 25.0688 250.493 24.2095C250.513 23.3306 250.552 22.4126 250.61 21.4556C250.669 20.479 250.757 19.4829 250.874 18.4673C250.991 17.4321 251.148 16.4263 251.343 15.4497H240.825C240.513 15.4497 240.249 15.3618 240.034 15.186C239.819 14.9907 239.712 14.7368 239.712 14.4243C239.712 14.1118 239.819 13.8677 240.034 13.6919C240.249 13.4966 240.513 13.3989 240.825 13.3989H251.841C252.036 12.6958 252.261 12.0513 252.515 11.4653C252.788 10.8794 253.091 10.3716 253.423 9.94189C253.775 9.51221 254.155 9.18018 254.566 8.9458C254.995 8.69189 255.464 8.56494 255.972 8.56494C256.46 8.56494 256.88 8.69189 257.232 8.9458C257.603 9.18018 257.915 9.51221 258.169 9.94189C258.423 10.3716 258.618 10.8794 258.755 11.4653C258.911 12.0513 259.028 12.6958 259.107 13.3989H274.077C274.39 13.3989 274.653 13.4966 274.868 13.6919C275.083 13.8677 275.191 14.1118 275.191 14.4243ZM253.13 32.6763C253.716 31.3872 254.243 30.0005 254.712 28.5161C255.2 27.0122 255.61 25.4985 255.943 23.9751C256.294 22.4517 256.558 20.9575 256.734 19.4927C256.929 18.0278 257.026 16.6802 257.026 15.4497H253.569C253.296 16.6606 253.071 18.1646 252.896 19.9614C252.739 21.7388 252.661 23.9067 252.661 26.4653C252.661 27.8911 252.7 29.0923 252.778 30.0688C252.857 31.0259 252.974 31.895 253.13 32.6763ZM255.855 10.7622C255.679 10.7622 255.425 10.9575 255.093 11.3481C254.761 11.7192 254.429 12.4028 254.097 13.3989H256.909C256.812 12.5786 256.665 11.9341 256.47 11.4653C256.294 10.9966 256.089 10.7622 255.855 10.7622ZM253.599 34.7856V34.8149V34.7856ZM279.27 40.5278C278.782 40.5278 278.352 40.4888 277.981 40.4106C277.688 40.9966 277.336 41.5435 276.926 42.0513C276.516 42.5396 276.037 42.9692 275.491 43.3403C274.963 43.7114 274.367 44.0044 273.703 44.2192C273.039 44.4341 272.317 44.5415 271.535 44.5415C270.617 44.5415 269.778 44.3755 269.016 44.0435C268.254 43.731 267.59 43.2915 267.024 42.7251C266.457 42.1392 266.018 41.4458 265.705 40.645C265.393 39.8247 265.237 38.9263 265.237 37.9497C265.237 36.6997 265.461 35.6157 265.91 34.6978C266.36 33.7603 266.877 32.9888 267.463 32.3833C268.049 31.7583 268.635 31.2993 269.221 31.0063C269.807 30.6938 270.246 30.5376 270.539 30.5376C270.871 30.5376 271.116 30.6255 271.272 30.8013C271.448 30.9771 271.535 31.2114 271.535 31.5044C271.535 31.8364 271.428 32.0903 271.213 32.2661C271.018 32.4224 270.764 32.5786 270.451 32.7349C270.139 32.8911 269.807 33.1157 269.455 33.4087C269.104 33.6821 268.772 34.0337 268.459 34.4634C268.166 34.8931 267.922 35.4009 267.727 35.9868C267.532 36.5728 267.434 37.2271 267.434 37.9497C267.434 38.5942 267.532 39.1997 267.727 39.7661C267.922 40.313 268.205 40.7915 268.576 41.2017C268.948 41.5923 269.387 41.9048 269.895 42.1392C270.403 42.354 270.969 42.4614 271.594 42.4614C272.707 42.4614 273.625 42.2075 274.348 41.6997C275.09 41.1724 275.657 40.5083 276.047 39.7075C274.895 39.1021 273.948 38.2427 273.205 37.1294C272.463 36.0161 272.092 34.7661 272.092 33.3794C272.092 32.2661 272.356 31.3579 272.883 30.6548C273.43 29.9517 274.143 29.6001 275.022 29.6001C275.549 29.6001 276.047 29.7271 276.516 29.981C276.985 30.2349 277.395 30.6353 277.746 31.1821C278.117 31.729 278.41 32.4321 278.625 33.2915C278.84 34.1509 278.948 35.1763 278.948 36.3677C278.948 36.9927 278.869 37.647 278.713 38.3306C278.83 38.3501 278.948 38.3599 279.065 38.3599C279.182 38.3599 279.309 38.3599 279.446 38.3599C280.11 38.3599 280.705 38.2817 281.233 38.1255C281.76 37.9692 282.239 37.7349 282.668 37.4224C283.098 37.1099 283.479 36.7095 283.811 36.2212C284.162 35.7329 284.494 35.1665 284.807 34.522C284.866 34.4048 284.992 34.2974 285.188 34.1997C285.383 34.0825 285.578 34.0239 285.774 34.0239C286.028 34.0239 286.262 34.1313 286.477 34.3462C286.711 34.5415 286.828 34.8052 286.828 35.1372C286.828 35.2935 286.789 35.4692 286.711 35.6646C286.633 35.8403 286.555 36.0063 286.477 36.1626C286.145 36.7485 285.754 37.3149 285.305 37.8618C284.875 38.3892 284.358 38.8579 283.752 39.2681C283.166 39.6587 282.502 39.9712 281.76 40.2056C281.018 40.4399 280.188 40.5474 279.27 40.5278ZM274.26 33.145C274.26 33.5161 274.309 33.9067 274.407 34.3169C274.504 34.7271 274.651 35.1372 274.846 35.5474C275.061 35.938 275.315 36.3188 275.608 36.6899C275.92 37.0415 276.282 37.3442 276.692 37.5981C276.75 37.188 276.78 36.7876 276.78 36.397C276.78 35.8696 276.741 35.3325 276.662 34.7856C276.584 34.2388 276.467 33.7407 276.311 33.2915C276.174 32.8228 275.998 32.4517 275.784 32.1782C275.569 31.8853 275.315 31.7388 275.022 31.7388C274.905 31.7388 274.748 31.8267 274.553 32.0024C274.358 32.1782 274.26 32.5591 274.26 33.145Z" fill="black"/>
</svg>
