<svg height="100%" viewBox="0 0 125 46" fill="none" xmlns="http://www.w3.org/2000/svg">
    <path d="M60.5617 44.3535C60.6398 44.4902 60.6789 44.6562 60.6789 44.8516C60.6789 45.1445 60.5715 45.3984 60.3566 45.6133C60.1613 45.8281 59.8977 45.9355 59.5656 45.9355C59.3508 45.9355 59.1555 45.8867 58.9797 45.7891C58.8234 45.6914 58.6965 45.5449 58.5988 45.3496C58.2277 44.627 57.8957 43.7285 57.6027 42.6543C57.3293 41.5605 57.0852 40.3496 56.8703 39.0215C56.675 37.6934 56.509 36.2676 56.3723 34.7441C56.2551 33.2012 56.1574 31.6094 56.0793 29.9688C54.6145 30.1641 52.9641 30.3789 51.1281 30.6133C49.3117 30.8477 47.2316 31.1211 44.8879 31.4336C43.2473 31.668 41.5773 31.873 39.8781 32.0488C35.6984 36.5996 31.2941 40.0566 26.6652 42.4199C22.0559 44.7637 17.427 45.9355 12.7785 45.9355C10.7082 45.9355 8.91133 45.7305 7.38789 45.3203C5.88398 44.9297 4.63398 44.4902 3.63789 44.002C2.66133 43.4941 1.92891 43.0254 1.44062 42.5957C0.932812 42.166 0.659374 41.9316 0.620312 41.8926C0.424999 41.6973 0.327343 41.4434 0.327343 41.1309C0.327343 40.8184 0.434765 40.5547 0.649609 40.3398C0.864452 40.125 1.11836 40.0176 1.41133 40.0176C1.74336 40.0176 2.0168 40.1348 2.23164 40.3691C2.2707 40.4082 2.50508 40.6133 2.93476 40.9844C3.36445 41.3359 3.99922 41.7168 4.83906 42.127C5.69844 42.5371 6.78242 42.9082 8.09101 43.2402C9.39961 43.5723 10.9523 43.7383 12.7492 43.7383C15.2102 43.7383 17.5637 43.4062 19.8098 42.7422C22.0559 42.0781 24.175 41.2188 26.1672 40.1641C28.1789 39.0898 30.0441 37.8691 31.7629 36.502C33.5012 35.1348 35.0734 33.748 36.4797 32.3418C35.093 32.459 33.716 32.5469 32.3488 32.6055C30.9816 32.6641 29.634 32.6934 28.3059 32.6934C25.6887 32.6934 23.1984 32.5469 20.8352 32.2539C18.4719 31.9609 16.3918 31.4727 14.5949 30.7891C12.798 30.0859 11.3625 29.1582 10.2883 28.0059C9.23359 26.8535 8.70625 25.418 8.70625 23.6992C8.70625 22.918 8.8625 22.1367 9.175 21.3555C9.50703 20.5742 9.89766 19.8711 10.3469 19.2461C10.7961 18.6016 11.2648 18.084 11.7531 17.6934C12.2414 17.2832 12.6613 17.0781 13.0129 17.0781C13.2863 17.0781 13.5402 17.1758 13.7746 17.3711C14.009 17.5664 14.1262 17.8301 14.1262 18.1621C14.1262 18.3379 14.0871 18.5137 14.009 18.6895C13.9309 18.8457 13.8137 18.9727 13.6574 19.0703C13.6184 19.1094 13.4523 19.2461 13.1594 19.4805C12.8664 19.7148 12.5539 20.0371 12.2219 20.4473C11.8898 20.8379 11.5871 21.3164 11.3137 21.8828C11.0402 22.4297 10.9035 23.0254 10.9035 23.6699C10.9035 24.7832 11.2844 25.7695 12.0461 26.6289C12.8273 27.4688 13.9504 28.1816 15.4152 28.7676C16.8996 29.334 18.716 29.7637 20.8645 30.0566C23.0129 30.3496 25.4641 30.4961 28.218 30.4961C29.8 30.4961 31.4699 30.4473 33.2277 30.3496C34.9855 30.252 36.841 30.1055 38.7941 29.9102C39.7316 28.875 40.5617 27.8984 41.2844 26.9805C42.007 26.0625 42.6223 25.2422 43.1301 24.5195C43.9699 23.3281 44.8488 22.0586 45.7668 20.7109C46.6848 19.3633 47.593 17.9961 48.4914 16.6094C49.4094 15.2227 50.298 13.8555 51.1574 12.5078C52.0363 11.1406 52.8566 9.86133 53.6184 8.66992C54.3801 7.45898 55.0637 6.36523 55.6691 5.38867C56.2746 4.39258 56.7727 3.57227 57.1633 2.92773C57.2805 2.40039 57.4562 1.92188 57.6906 1.49219C57.925 1.04297 58.3059 0.818359 58.8332 0.818359C59.1262 0.818359 59.4094 0.945312 59.6828 1.19922C59.9562 1.43359 60.093 1.73633 60.093 2.10742C60.093 2.38086 59.9953 2.67383 59.8 2.98633C59.6047 3.29883 59.4191 3.5625 59.2434 3.77734C59.1848 4.14844 59.0871 4.93945 58.9504 6.15039C58.8332 7.36133 58.7062 8.8457 58.5695 10.6035C58.4523 12.3418 58.3449 14.2656 58.2473 16.375C58.1691 18.4648 58.1301 20.584 58.1301 22.7324C58.1301 23.5332 58.1301 24.3242 58.1301 25.1055C58.1301 25.8867 58.1496 26.6777 58.1887 27.4785C61.1184 27.1074 63.257 26.8535 64.6047 26.7168C65.9523 26.5605 66.6652 26.4824 66.7434 26.4824C66.9973 26.4824 67.2414 26.5898 67.4758 26.8047C67.7297 27 67.8566 27.2637 67.8566 27.5957C67.8566 27.8691 67.759 28.1133 67.5637 28.3281C67.3879 28.5234 67.1535 28.6406 66.8605 28.6797C66.509 28.7188 66.0988 28.7676 65.6301 28.8262C65.1613 28.8848 64.5852 28.9531 63.9016 29.0312C63.218 29.1094 62.4172 29.207 61.4992 29.3242C60.5812 29.4219 59.507 29.5488 58.2766 29.7051C58.3352 31.3066 58.423 32.8496 58.5402 34.334C58.677 35.7988 58.8332 37.166 59.009 38.4355C59.2043 39.7051 59.4289 40.8477 59.6828 41.8633C59.9367 42.8789 60.2297 43.709 60.5617 44.3535ZM44.5949 29.2363C46.8996 28.9238 48.9895 28.6504 50.8645 28.416C52.759 28.1621 54.468 27.9375 55.9914 27.7422C55.9719 26.9023 55.9523 26.0625 55.9328 25.2227C55.9328 24.3828 55.9328 23.5332 55.9328 22.6738C55.9328 19.9199 55.9816 17.293 56.0793 14.793C56.177 12.2734 56.3137 10.0859 56.4895 8.23047C55.7082 9.46094 54.8391 10.8281 53.882 12.332C52.9445 13.8164 51.968 15.3398 50.9523 16.9023C49.9367 18.4453 48.9113 19.9785 47.8762 21.502C46.841 23.0254 45.8547 24.4512 44.9172 25.7793C44.4484 26.4434 43.9699 27.0879 43.4816 27.7129C42.9934 28.3379 42.5051 28.9531 42.0168 29.5586C42.4465 29.5195 42.8664 29.4707 43.2766 29.4121C43.7062 29.3535 44.1457 29.2949 44.5949 29.2363ZM85.9691 36.3848C85.7543 36.834 85.4809 37.3711 85.1488 37.9961C84.8363 38.6016 84.475 39.2363 84.0648 39.9004C83.6547 40.5645 83.1957 41.2285 82.6879 41.8926C82.1801 42.5371 81.6234 43.123 81.018 43.6504C80.432 44.1582 79.7973 44.5684 79.1137 44.8809C78.4496 45.2129 77.7367 45.3789 76.975 45.3789C75.8031 45.3789 74.7973 45.0176 73.9574 44.2949C73.1176 43.5723 72.4047 42.625 71.8188 41.4531C71.2328 40.2812 70.7543 38.9531 70.3832 37.4688C70.0316 35.9648 69.7582 34.4414 69.5629 32.8984C69.3676 31.3359 69.2309 29.8223 69.1527 28.3574C69.0941 26.8926 69.0648 25.5938 69.0648 24.4609C69.0648 22.8203 69.1137 21.1211 69.2113 19.3633C69.3285 17.6055 69.5043 15.8867 69.7387 14.207C69.9731 12.5273 70.266 10.9355 70.6176 9.43164C70.9887 7.92773 71.4184 6.60938 71.9066 5.47656C72.4145 4.34375 72.9906 3.44531 73.6352 2.78125C74.2797 2.11719 75.0121 1.78516 75.8324 1.78516C76.477 1.78516 77.0531 1.94141 77.5609 2.25391C78.0883 2.54688 78.5277 3.03516 78.8793 3.71875C79.2309 4.40234 79.5043 5.29102 79.6996 6.38477C79.8949 7.47852 79.9926 8.81641 79.9926 10.3984C79.9926 12.3516 79.7875 14.373 79.3773 16.4629C78.9672 18.5332 78.4106 20.623 77.7074 22.7324C77.0043 24.8418 76.1742 26.9512 75.2172 29.0605C74.2602 31.1504 73.2348 33.1914 72.141 35.1836C72.6293 37.6641 73.2836 39.6172 74.1039 41.043C74.9242 42.4492 75.9106 43.1523 77.0629 43.1523C77.8441 43.1523 78.5961 42.8496 79.3188 42.2441C80.0414 41.6191 80.7055 40.8867 81.3109 40.0469C81.9164 39.207 82.4438 38.3574 82.893 37.498C83.3617 36.6191 83.7231 35.916 83.977 35.3887C84.0746 35.1934 84.2113 35.0469 84.3871 34.9492C84.5629 34.832 84.7582 34.7734 84.9731 34.7734C85.3051 34.7734 85.5688 34.8906 85.7641 35.125C85.9789 35.3594 86.0863 35.623 86.0863 35.916C86.0863 36.0332 86.0473 36.1895 85.9691 36.3848ZM71.2914 24.6074C71.2914 25.8574 71.3207 27.0586 71.3793 28.2109C71.4379 29.3633 71.516 30.4668 71.6137 31.5215C72.434 29.9395 73.2152 28.2598 73.9574 26.4824C74.6996 24.6855 75.3539 22.8789 75.9203 21.0625C76.4867 19.2266 76.9359 17.4102 77.268 15.6133C77.6195 13.7969 77.7953 12.0684 77.7953 10.4277C77.7953 8.12305 77.6098 6.47266 77.2387 5.47656C76.8676 4.48047 76.3695 3.98242 75.7445 3.98242C75.3344 3.98242 74.934 4.26563 74.5434 4.83203C74.1723 5.39844 73.8207 6.16992 73.4887 7.14648C73.1566 8.12305 72.8539 9.27539 72.5805 10.6035C72.307 11.9316 72.0727 13.3574 71.8773 14.8809C71.7016 16.4043 71.5551 17.9961 71.4379 19.6562C71.3402 21.3164 71.2914 22.9668 71.2914 24.6074ZM87.8219 41.2773C88.232 41.8438 88.7594 42.3027 89.4039 42.6543C90.0484 42.9863 90.8394 43.1523 91.7769 43.1523C92.734 43.1523 93.6031 42.9277 94.3844 42.4785C95.1656 42.0098 95.8785 41.4043 96.523 40.6621C97.1676 39.9199 97.7437 39.0898 98.2516 38.1719C98.7594 37.2539 99.2184 36.3359 99.6285 35.418C99.7262 35.2031 99.8629 35.0469 100.039 34.9492C100.214 34.832 100.41 34.7734 100.625 34.7734C100.957 34.7734 101.22 34.8906 101.416 35.125C101.63 35.3594 101.738 35.6133 101.738 35.8867C101.738 35.9844 101.728 36.0723 101.709 36.1504C101.689 36.209 101.66 36.2773 101.621 36.3555C100.273 39.3242 98.7984 41.5605 97.1969 43.0645C95.6148 44.5684 93.818 45.3398 91.8062 45.3789C90.5172 45.3789 89.4039 45.125 88.4664 44.6172C87.5289 44.1289 86.7574 43.4941 86.1519 42.7129C85.5465 41.9121 85.0973 41.0137 84.8043 40.0176C84.5113 39.0215 84.3648 38.0254 84.3648 37.0293C84.3648 36.0332 84.482 35.1152 84.7164 34.2754C84.9703 33.4355 85.3219 32.7031 85.7711 32.0781C86.2398 31.4531 86.7867 30.9648 87.4117 30.6133C88.0562 30.2617 88.7594 30.0859 89.5211 30.0859C89.9703 30.0859 90.4098 30.1836 90.8394 30.3789C91.2887 30.5547 91.6891 30.8184 92.0406 31.1699C92.3922 31.502 92.6754 31.9121 92.8902 32.4004C93.1051 32.8887 93.2125 33.4453 93.2125 34.0703C93.2125 34.8711 93.0758 35.623 92.8023 36.3262C92.5289 37.0293 92.148 37.6836 91.6598 38.2891C91.191 38.8945 90.6246 39.4512 89.9605 39.959C89.2965 40.4668 88.5836 40.9062 87.8219 41.2773ZM86.943 39.373C87.5484 39.1191 88.0953 38.7969 88.5836 38.4062C89.0914 38.0156 89.5211 37.5859 89.8727 37.1172C90.2242 36.6484 90.4977 36.1602 90.693 35.6523C90.8883 35.125 90.9859 34.5977 90.9859 34.0703C90.9859 33.4844 90.8394 33.0449 90.5465 32.752C90.2535 32.4395 89.9117 32.2832 89.5211 32.2832C88.9937 32.2832 88.5445 32.4297 88.1734 32.7227C87.8023 33.0156 87.4996 33.3965 87.2652 33.8652C87.0309 34.334 86.8551 34.8613 86.7379 35.4473C86.6402 36.0137 86.5914 36.5801 86.5914 37.1465C86.5914 37.498 86.6207 37.8691 86.6793 38.2598C86.7574 38.6504 86.8453 39.0215 86.943 39.373ZM117.419 27.918C114.411 31.6289 111.667 35.5352 109.186 39.6367C109.87 40.6523 110.622 41.4922 111.442 42.1562C112.262 42.8203 113.19 43.1523 114.225 43.1523C115.143 43.1523 116.012 42.8887 116.833 42.3613C117.653 41.834 118.395 41.1895 119.059 40.4277C119.743 39.6465 120.329 38.8164 120.817 37.9375C121.325 37.0391 121.716 36.2285 121.989 35.5059C122.184 35.0176 122.526 34.7734 123.014 34.7734C123.346 34.7734 123.61 34.8906 123.805 35.125C124.02 35.3398 124.128 35.5938 124.128 35.8867C124.128 35.9844 124.108 36.1113 124.069 36.2676C124.089 36.2285 124.001 36.4238 123.805 36.8535C123.61 37.2832 123.317 37.8398 122.927 38.5234C122.536 39.1875 122.057 39.9199 121.491 40.7207C120.925 41.5215 120.27 42.2734 119.528 42.9766C118.805 43.6602 117.995 44.2266 117.096 44.6758C116.198 45.1445 115.231 45.3789 114.196 45.3789C112.907 45.3789 111.745 45.0371 110.71 44.3535C109.694 43.6699 108.776 42.8008 107.956 41.7461C107.624 42.332 107.302 42.918 106.989 43.5039C106.677 44.0898 106.364 44.6758 106.052 45.2617C105.837 45.6719 105.505 45.877 105.055 45.877C104.723 45.877 104.45 45.7598 104.235 45.5254C104.04 45.291 103.942 45.0371 103.942 44.7637C103.942 44.6074 103.991 44.4316 104.089 44.2363C104.479 43.4746 104.88 42.7129 105.29 41.9512C105.7 41.1895 106.13 40.4375 106.579 39.6953C105.915 38.543 105.348 37.3711 104.88 36.1797C104.411 34.9688 104.04 33.8359 103.766 32.7812L102.038 36.3555C101.823 36.7852 101.491 37 101.042 37C100.71 37 100.436 36.8828 100.221 36.6484C100.026 36.4141 99.9285 36.1602 99.9285 35.8867C99.9285 35.7109 99.9676 35.5547 100.046 35.418L103.239 28.7383C103.337 28.5625 103.473 28.416 103.649 28.2988C103.825 28.1816 104.02 28.123 104.235 28.123C104.548 28.123 104.802 28.2305 104.997 28.4453C105.192 28.6406 105.309 28.8848 105.348 29.1777C105.368 29.4512 105.436 29.8809 105.554 30.4668C105.69 31.0527 105.866 31.7266 106.081 32.4883C106.315 33.2305 106.579 34.0312 106.872 34.8906C107.184 35.75 107.546 36.5996 107.956 37.4395C110.3 33.6309 112.887 29.9883 115.72 26.5117C115.915 26.2578 116.198 26.1309 116.569 26.1309C116.882 26.1309 117.145 26.2383 117.36 26.4531C117.575 26.668 117.682 26.9219 117.682 27.2148C117.682 27.4883 117.595 27.7227 117.419 27.918Z" fill="black"/>
</svg>
